# xmcd
#
# Track frame offsets:
#	150
#	13480
#	27802
#	40755
#	47952
#	55135
#	71780
#	83645
#	97122
#	113955
#	130547
#	145877
#	165122
#	173552
#	180750
#
# Disc length: 2584 seconds
#
# Revision: 1
# Processed by: cddbd v1.5.1PL0 Copyright (c) Steve Scherf et al.
# Submitted via: CDex 1.50Beta5
#
DISCID=bc0a160f
DTITLE=Richard Clayderman - Rendez-vous
DYEAR=1900
DGENRE=
TTITLE0=渚のアテr-ヌ
TTITLE1=愛しのクリスチ0ヌ
TTITLE2=午後の旅たち
TTITLE3=子供のためのロンド
TTITLE4=ノスタルジー
TTITLE5=虹色の心
TTITLE6=きっと
TTITLE7=母への手紙
TTITLE8=夢の伝説
TTITLE9=エレナの瞳
TTITLE10=秋のささやき
TTITLE11=思い出の売る店
TTITLE12=愛の旋律
TTITLE13=子供のためのロンド
TTITLE14=渚のアテリ0ヌ
EXTD=
EXTT0=
EXTT1=
EXTT2=
EXTT3=
EXTT4=
EXTT5=
EXTT6=
EXTT7=
EXTT8=
EXTT9=
EXTT10=
EXTT11=
EXTT12=
EXTT13=
EXTT14=
PLAYORDER=
